<svg xmlns="http://www.w3.org/2000/svg" viewBox="0 0 1920 1080" role="img" aria-labelledby="title desc">
  <title id="title">Residencial Venezia</title>
  <desc id="desc">Arte provisória premium para capa do Residencial Venezia.</desc>
  <defs>
    <radialGradient id="glow" cx="65%" cy="42%" r="64%">
      <stop offset="0" stop-color="#6b4b42" stop-opacity=".58"/>
      <stop offset=".45" stop-color="#211c2d" stop-opacity=".88"/>
      <stop offset="1" stop-color="#070812"/>
    </radialGradient>
    <linearGradient id="gold" x1="0" x2="1">
      <stop offset="0" stop-color="#8a6a35"/>
      <stop offset=".5" stop-color="#e7d19c"/>
      <stop offset="1" stop-color="#8a6a35"/>
    </linearGradient>
    <filter id="soft">
      <feGaussianBlur stdDeviation="18"/>
    </filter>
  </defs>
  <rect width="1920" height="1080" fill="url(#glow)"/>
  <circle cx="1490" cy="160" r="290" fill="#c9a870" opacity=".08" filter="url(#soft)"/>
  <path d="M0 830 C290 700 515 895 815 765 C1110 638 1325 648 1920 835 V1080 H0Z" fill="#080a14" opacity=".74"/>
  <path d="M0 0 H1920 V1080 H0 Z" fill="#000" opacity=".18"/>
  <g fill="none" stroke="url(#gold)" stroke-width="6" opacity=".68" stroke-linejoin="round">
    <path d="M742 818V475l218-132 218 132v343"/>
    <path d="M805 818V511l155-94 155 94v307"/>
    <path d="M915 818V627h90v191"/>
    <path d="M742 475h436"/>
    <path d="M805 511h310"/>
    <path d="M628 250H1292"/>
    <path d="M574 274H1346"/>
  </g>
  <g opacity=".15" stroke="#f7f1e3" stroke-width="1">
    <path d="M220 0V1080"/>
    <path d="M1700 0V1080"/>
    <path d="M0 190H1920"/>
    <path d="M0 972H1920"/>
  </g>
  <text x="960" y="322" text-anchor="middle" fill="#f7f1e3" font-family="Georgia, 'Times New Roman', serif" font-size="78" letter-spacing="17">RESIDENCIAL VENEZIA</text>
  <text x="960" y="878" text-anchor="middle" fill="#c9a870" font-family="Arial, Helvetica, sans-serif" font-size="24" letter-spacing="7">ELEGÂNCIA · EXCLUSIVIDADE · CONFORTO</text>
</svg>
